<?xml version="1.0" encoding="UTF-8" standalone="no"?>
<!-- Created with Inkscape (http://www.inkscape.org/) -->

<svg
   width="48"
   height="48"
   viewBox="0 0 12.7 12.7"
   version="1.1"
   id="svg1"
   xml:space="preserve"
   xmlns="http://www.w3.org/2000/svg"
   xmlns:svg="http://www.w3.org/2000/svg"><defs
     id="defs1" /><g
     id="layer1"><path
       id="path5"
       style="opacity:1;fill:#000000;fill-opacity:1;stroke:none;stroke-width:0.104053;stroke-linecap:round;stroke-linejoin:round;stroke-miterlimit:1.9;stroke-dasharray:none;stroke-opacity:1;paint-order:normal"
       d="M 6.3690381,3.7798762 C 5.1133524,3.7707915 5.596827,2.7614826 3.5035791,2.9087852 1.861044,3.0243712 1.0217144,4.8129269 0.6262904,6.729218 0.6139685,6.788931 -0.17775926,10.659268 1.5511525,10.75667 2.7771975,10.82574 3.6933286,8.677156 4.4650054,8.597224 l 1.8975802,0.01183 h 0.030649 l 1.8975802,-0.01183 c 0.7716775,0.079932 1.6878067,2.228518 2.9138532,2.159446 1.728909,-0.0974 0.937185,-3.9677392 0.924863,-4.027452 C 11.734104,4.8129269 10.894775,3.0243712 9.2522416,2.9087852 7.0815948,2.756036 7.516119,3.7525303 6.3690381,3.7798762 Z m 2.988057,0.7076269 c 0.3040965,0 0.5506154,0.246519 0.5506154,0.5506155 0,0.3040965 -0.2465189,0.5506155 -0.5506154,0.5506155 -0.3040965,0 -0.5506155,-0.246519 -0.5506155,-0.5506155 0,-0.3040965 0.246519,-0.5506155 0.5506155,-0.5506155 z M 3.7665195,4.7111907 h 0.013981 c 0.2392866,0 0.4317815,0.1924946 0.4317815,0.4317814 v 0.445762 h 0.4457619 c 0.2392872,0 0.4317816,0.1924942 0.4317816,0.4317815 v 0.01398 c 0,0.2392867 -0.1924944,0.4317814 -0.4317816,0.4317814 H 4.2122815 v 0.445762 c 0,0.2392872 -0.1924949,0.4317815 -0.4317815,0.4317815 H 3.766519 c -0.239287,0 -0.4317815,-0.1924943 -0.4317815,-0.4317815 V 6.4662775 H 2.8889761 c -0.2392871,0 -0.4317815,-0.1924947 -0.4317815,-0.4317814 v -0.01398 c 0,-0.2392873 0.1924944,-0.4317814 0.4317815,-0.4317815 H 3.334738 v -0.445762 c 0,-0.2392868 0.1924945,-0.4317814 0.4317815,-0.4317819 z m 4.6786187,0.6538559 c 0.3040965,0 0.5506155,0.246519 0.5506155,0.5506155 0,0.3040965 -0.246519,0.5506154 -0.5506155,0.5506154 -0.3040965,0 -0.5506155,-0.2465189 -0.5506155,-0.5506154 0,-0.3040965 0.246519,-0.5506155 0.5506155,-0.5506155 z m 1.8239138,0.017207 c 0.304097,-3e-7 0.550616,0.2465186 0.550616,0.5506152 0,0.3040967 -0.246519,0.5506158 -0.550616,0.5506155 -0.3040965,0 -0.5506155,-0.246519 -0.5506155,-0.5506155 2e-7,-0.3040964 0.2465191,-0.5506152 0.5506155,-0.5506152 z M 9.3398884,6.2942102 c 0.3040964,2e-7 0.5506151,0.2465191 0.5506151,0.5506155 1e-7,0.3040964 -0.2465187,0.5506154 -0.5506151,0.5506156 -0.3040966,1e-7 -0.5506157,-0.246519 -0.5506156,-0.5506156 0,-0.3040966 0.246519,-0.5506156 0.5506156,-0.5506155 z" /></g></svg>
