<?xml version="1.0" encoding="UTF-8" standalone="no"?>
<!-- Created with Inkscape (http://www.inkscape.org/) -->

<svg
   width="50mm"
   height="50mm"
   viewBox="0 0 50 50"
   version="1.1"
   id="svg1"
   xml:space="preserve"
   xmlns="http://www.w3.org/2000/svg"
   xmlns:svg="http://www.w3.org/2000/svg"><defs
     id="defs1" /><g
     id="layer1"><path
       id="path1"
       style="fill:#000000;fill-opacity:1;stroke:#ed2f97;stroke-width:0;stroke-linecap:round;stroke-linejoin:round;stroke-miterlimit:1.9;stroke-dasharray:none"
       d="M 26.111584,4.4860311 C 12.69516,5.0061232 -0.82183868,22.375646 7.9886597,36.908341 c 0,0 3.9359763,6.268993 10.7130413,8.421709 5.263741,1.67201 12.571121,-0.185353 8.298201,-6.811471 -4.272915,-6.626117 5.335651,-4.289812 8.731767,-6.130892 C 49.385631,25.073876 43.111145,6.5657963 28.786873,4.6126383 27.899986,4.4917088 27.006016,4.4513582 26.111584,4.4860311 Z m 4.261239,5.3257731 a 3.1366291,3.1366291 0 0 1 3.136243,3.1367598 3.1366291,3.1366291 0 0 1 -3.136243,3.136242 3.1366291,3.1366291 0 0 1 -3.136759,-3.136242 3.1366291,3.1366291 0 0 1 3.136759,-3.1367598 z m -8.616011,0.1870687 a 3.1366291,3.1366291 0 0 1 3.136759,3.1362431 3.1366291,3.1366291 0 0 1 -3.136759,3.136759 3.1366291,3.1366291 0 0 1 -3.13676,-3.136759 3.1366291,3.1366291 0 0 1 3.13676,-3.1362431 z m -5.357813,5.4032881 a 3.1366291,3.1366291 0 0 1 3.136759,3.136242 3.1366291,3.1366291 0 0 1 -3.136759,3.13676 3.1366291,3.1366291 0 0 1 -3.136759,-3.13676 3.1366291,3.1366291 0 0 1 3.136759,-3.136242 z m 18.545638,0.344681 a 3.1366291,3.1366291 0 0 1 3.136759,3.136243 3.1366291,3.1366291 0 0 1 -3.136759,3.13676 3.1366291,3.1366291 0 0 1 -3.136759,-3.13676 3.1366291,3.1366291 0 0 1 3.136759,-3.136243 z" /></g></svg>
