<?xml version="1.0" encoding="UTF-8" standalone="no"?>
<!-- Created with Inkscape (http://www.inkscape.org/) -->

<svg
   width="48"
   height="48"
   viewBox="0 0 12.7 12.7"
   version="1.1"
   id="svg1"
   xml:space="preserve"
   inkscape:export-filename="bitkép.svg"
   inkscape:export-xdpi="96"
   inkscape:export-ydpi="96"
   xmlns:inkscape="http://www.inkscape.org/namespaces/inkscape"
   xmlns:sodipodi="http://sodipodi.sourceforge.net/DTD/sodipodi-0.dtd"
   xmlns="http://www.w3.org/2000/svg"
   xmlns:svg="http://www.w3.org/2000/svg"><sodipodi:namedview
     id="namedview1"
     pagecolor="#ffffff"
     bordercolor="#000000"
     borderopacity="0.25"
     inkscape:showpageshadow="2"
     inkscape:pageopacity="0.0"
     inkscape:pagecheckerboard="0"
     inkscape:deskcolor="#d1d1d1"
     inkscape:document-units="mm" /><defs
     id="defs1" /><g
     inkscape:label="Réteg 1"
     inkscape:groupmode="layer"
     id="layer1"><path
       id="path5"
       style="opacity:1;fill:#000000;fill-opacity:1;stroke:none;stroke-width:0.104053;stroke-linecap:round;stroke-linejoin:round;stroke-miterlimit:1.9;stroke-dasharray:none;stroke-opacity:1;paint-order:normal"
       d="M 8.8715426,2.8926539 C 7.1114763,2.8754907 7.4270233,3.7546543 6.3690381,3.7798762 5.1133524,3.7707915 5.596827,2.7614826 3.5035791,2.9087852 1.861044,3.0243712 1.0217144,4.8129269 0.6262904,6.729218 0.6139685,6.788931 -0.17775926,10.659268 1.5511525,10.75667 2.7771975,10.82574 3.6933286,8.677156 4.4650054,8.597224 l 1.8975802,0.01183 h 0.030649 l 1.8975802,-0.01183 c 0.7716775,0.079932 1.6878067,2.228518 2.9138532,2.159446 1.728909,-0.0974 0.937185,-3.9677392 0.924863,-4.027452 C 11.734104,4.8129269 10.894775,3.0243712 9.2522416,2.9087852 9.115434,2.899158 8.9888804,2.8937981 8.8715426,2.8926539 Z M 9.3570951,4.4875031 A 0.55061548,0.55061548 0 0 1 9.9077105,5.0381186 0.55061548,0.55061548 0 0 1 9.3570951,5.5887341 0.55061548,0.55061548 0 0 1 8.8064796,5.0381186 0.55061548,0.55061548 0 0 1 9.3570951,4.4875031 Z M 3.7665195,4.7111907 h 0.013981 c 0.2392866,0 0.4317815,0.1924946 0.4317815,0.4317814 v 0.445762 h 0.4457619 c 0.2392872,0 0.4317816,0.1924942 0.4317816,0.4317815 v 0.01398 c 0,0.2392867 -0.1924944,0.4317814 -0.4317816,0.4317814 H 4.2122815 v 0.445762 c 0,0.2392872 -0.1924949,0.4317815 -0.4317815,0.4317815 H 3.766519 c -0.239287,0 -0.4317815,-0.1924943 -0.4317815,-0.4317815 V 6.4662775 H 2.8889761 c -0.2392871,0 -0.4317815,-0.1924947 -0.4317815,-0.4317814 v -0.01398 c 0,-0.2392873 0.1924944,-0.4317814 0.4317815,-0.4317815 H 3.334738 v -0.445762 c 0,-0.2392868 0.1924945,-0.4317814 0.4317815,-0.4317819 z M 8.4451382,5.3650466 A 0.55061548,0.55061548 0 0 1 8.9957537,5.9156621 0.55061548,0.55061548 0 0 1 8.4451382,6.4662775 0.55061548,0.55061548 0 0 1 7.8945227,5.9156621 0.55061548,0.55061548 0 0 1 8.4451382,5.3650466 Z m 1.8239138,0.017207 A 0.55061548,0.55061548 0 0 1 10.819668,5.9328688 0.55061548,0.55061548 0 0 1 10.269052,6.4834843 0.55061548,0.55061548 0 0 1 9.7184365,5.9328688 0.55061548,0.55061548 0 0 1 10.269052,5.3822536 Z M 9.3398884,6.2942102 A 0.55061548,0.55061548 0 0 1 9.8905035,6.8448257 0.55061548,0.55061548 0 0 1 9.3398884,7.3954413 0.55061548,0.55061548 0 0 1 8.7892728,6.8448257 0.55061548,0.55061548 0 0 1 9.3398884,6.2942102 Z" /></g></svg>
